<svg xmlns="http://www.w3.org/2000/svg" xmlns:xlink="http://www.w3.org/1999/xlink" width="136.683" height="35.021" viewBox="0 0 136.683 35.021"><defs><style>.a{fill:none;}.b{fill:url(#a);}.c{clip-path:url(#h);}.d{fill:url(#i);}.e{fill:#fff;}.f{fill:#505457;}</style><linearGradient id="a" y1="0.5" x2="1" y2="0.5" gradientUnits="objectBoundingBox"><stop offset="0" stop-color="#1b79be"/><stop offset="1" stop-color="#254698"/></linearGradient><clipPath id="h"><path class="a" d="M67.534,307.233c.661,2,8.421,25.428,8.421,25.428s2.419,6.208,7.517,1.7,22.159-17.926,22.159-17.926,1.839-2.1.853-4.067-3.9-7.789-4.795-9.541a2.373,2.373,0,0,0-2.566-1.382l-29.5,3.1S66.871,305.232,67.534,307.233Z" transform="translate(-67.431 -301.414)"/></clipPath><radialGradient id="i" cx="0.5" cy="0.5" r="0.567" gradientTransform="translate(-2.82 -1.079) scale(0.879 0.886)" gradientUnits="objectBoundingBox"><stop offset="0" stop-color="#197899"/><stop offset="1" stop-color="#254698"/></radialGradient></defs><g transform="translate(-67.431 -301.414)"><g transform="translate(67.431 301.414)"><g transform="translate(44.477 0.133)"><path class="b" d="M185.981,319.528q.183-.3.6-.948c.277-.434.6-.921.965-1.468q.506-.865,1.149-1.813c.429-.633.876-1.278,1.335-1.939s.9-1.32,1.332-1.965.874-1.3,1.335-1.964c.424-.633.778-1.167,1.055-1.6a11.6,11.6,0,0,0,.6-1.035,2.032,2.032,0,0,0,.436-1.1c-.014-.275-.207-.452-.573-.541a8.124,8.124,0,0,0-1.335-.171c-.523-.028-1.117-.044-1.789-.044H187.22v-3.066h6.024q3.994,0,4.942,1.534t-.8,4.64q-.416.775-1.475,2.458c-.7,1.123-1.47,2.29-2.293,3.5-.433.6-.846,1.208-1.245,1.813s-.764,1.165-1.1,1.683q-.551.82-.945,1.423c-.259.4-.452.707-.573.907a2.849,2.849,0,0,0-.665,2.374q.3.95,1.723.952h7.726l3.49,3.449-11.539-.128a7.662,7.662,0,0,1-3.373-.625,3.74,3.74,0,0,1-1.773-1.619,3.782,3.782,0,0,1-.323-2.265A6.12,6.12,0,0,1,185.981,319.528Z" transform="translate(-184.966 -301.835)"/><path class="b" d="M234.736,323.067l2.089,3.494h-6.134a11.066,11.066,0,0,1-3.488-.492c-.9-.3-3.58-3.238-3.58-3.238a5.931,5.931,0,0,1-.56-3.044V308.827q0-3.711,1.837-5.329t5.7-1.621h3.813v3.452h-4.089a3.379,3.379,0,0,0-2.848,1.125,3.956,3.956,0,0,0-.874,2.5v2.674h7.721v3.5H226.6v4.225a3.315,3.315,0,0,0,1.1,2.722,5.462,5.462,0,0,0,3.309.993Z" transform="translate(-208.647 -301.835)"/><path class="b" d="M264.106,302.163h3.68V305.4h-3.357a4.136,4.136,0,0,0-2.986.909,2.818,2.818,0,0,0-.922,2.071,2.281,2.281,0,0,0,.438,1.4,3.23,3.23,0,0,0,1.312.967c.582.262,1.165.518,1.745.78s1.148.518,1.7.772a12.482,12.482,0,0,1,1.608,1.018,9.864,9.864,0,0,1,1.475,1.359,5.279,5.279,0,0,1,1.052,1.964,9.229,9.229,0,0,1,.372,2.74,6.641,6.641,0,0,1-2.277,5.265,8.594,8.594,0,0,1-5.861,1.983h-1.917l-2.062-3.355,3.66-.009a6.61,6.61,0,0,0,1.857-.26,6.049,6.049,0,0,0,1.725-.82,3.94,3.94,0,0,0,1.263-1.208,2.753,2.753,0,0,0,.438-1.511,4.692,4.692,0,0,0-.184-1.379,3.349,3.349,0,0,0-.507-1.035,6.054,6.054,0,0,0-2.066-1.553,18.756,18.756,0,0,0-2.577-1.08,11.625,11.625,0,0,1-1.677-.733,6.273,6.273,0,0,1-1.449-1.08,4.9,4.9,0,0,1-1.007-1.681,7.092,7.092,0,0,1-.372-2.461,5.967,5.967,0,0,1,1.908-4.683A6.9,6.9,0,0,1,264.106,302.163Z" transform="translate(-229.873 -302.011)"/><path class="b" d="M298.294,305.031V326.6h-3.538V305.031h-4.692v-3.154h14.651l-2.882,3.154Z" transform="translate(-250.294 -301.835)"/><path class="b" d="M335.386,323.067l1.965,3.494h-6.008q-3.863,0-5.747-1.813a6.543,6.543,0,0,1-1.887-4.96V308.827q0-3.711,1.839-5.329a7.218,7.218,0,0,1,4.146-1.545,15.51,15.51,0,0,1,1.557-.075h6.1l-2.286,3.452h-4.091a3.381,3.381,0,0,0-2.848,1.125,3.961,3.961,0,0,0-.878,2.5v2.674h7.726v3.5h-7.726v4.225a3.315,3.315,0,0,0,1.105,2.722,5.481,5.481,0,0,0,3.309.993Z" transform="translate(-271.207 -301.835)"/><path class="b" d="M368.55,301.767v3.669h-.5a11.238,11.238,0,0,0-3.4.432,5.531,5.531,0,0,0-2.114,1.163,4.055,4.055,0,0,0-1.032,1.747,7.785,7.785,0,0,0-.3,2.224v6.215a9.138,9.138,0,0,0,.257,2.243,3.478,3.478,0,0,0,1.027,1.768,4.848,4.848,0,0,0,2.073,1.21,11.562,11.562,0,0,0,3.492.434l1.491.045,2.087,3.62H367.63q-5.425,0-7.859-2.5a8.77,8.77,0,0,1-2.435-6.386v-6.992a10.063,10.063,0,0,1,.576-3.43,7.2,7.2,0,0,1,1.816-2.825,8.789,8.789,0,0,1,3.192-1.922,13.746,13.746,0,0,1,4.71-.713Z" transform="translate(-292.109 -301.767)"/><path class="b" d="M407.263,302.111v24.595h-3.492V315.4h-5.979v11.305h-1.433l-2.105-3.78V302.111h3.538v9.709h5.979v-9.709Z" transform="translate(-315.057 -301.981)"/></g><g transform="translate(0 0)"><g class="c"><g transform="translate(-10.255)"><path class="d" d="M67.534,307.233c.661,2,8.421,25.428,8.421,25.428s2.419,6.208,7.517,1.7,22.159-17.926,22.159-17.926,1.839-2.1.853-4.067-3.9-7.789-4.795-9.541a2.373,2.373,0,0,0-2.566-1.382l-29.5,3.1S66.871,305.232,67.534,307.233Z" transform="translate(-57.175 -301.414)"/><g transform="translate(0 2.55)"><path class="e" d="M40.33,333.376c4.417-3.781,8.927-7.331,13.6-10.757A141.884,141.884,0,0,1,68.552,313.1a58.767,58.767,0,0,1,8.022-3.761c.7-.262,1.417-.494,2.14-.7.362-.106.731-.2,1.1-.293a4.24,4.24,0,0,1,1.364-.182,1.617,1.617,0,0,1,1.009.422,1.422,1.422,0,0,1,.408.91,3.227,3.227,0,0,1-.2,1.282,12.519,12.519,0,0,1-.935,2,62.936,62.936,0,0,1-4.866,6.971q-2.61,3.341-5.391,6.547,2.518-3.395,4.855-6.888a61.51,61.51,0,0,0,4.233-7.161,11.3,11.3,0,0,0,.7-1.834,2.079,2.079,0,0,0,.078-.754c-.016-.081-.046-.087,0-.026s.073.053.007.053a3.352,3.352,0,0,0-.784.2c-.335.1-.669.211-1,.33-.661.24-1.318.5-1.963.78a56.127,56.127,0,0,0-7.457,4.069A138,138,0,0,0,56.2,325.189c-4.348,3.62-8.593,7.414-12.6,11.305Z" transform="translate(-40.33 -308.154)"/></g><g transform="translate(22.964 9.579)"><path class="e" d="M101.015,357.968c2.046-2.418,4.038-4.717,5.9-7.165a90.127,90.127,0,0,0,5.228-7.55,83.045,83.045,0,0,0,7.884-16.525,82.791,82.791,0,0,1-6.109,17.385,91.255,91.255,0,0,1-4.483,8.215c-1.624,2.67-3.447,5.28-5.162,7.8Z" transform="translate(-101.015 -326.728)"/></g></g></g></g></g><g transform="translate(113.428 328.595)"><path class="f" d="M196.063,379.083H192.83V381.9h-.64v-2.812h-3.206v-.535h7.078Zm-6.649-1.743c1.314-.193,2.751-1.1,2.751-2.164V375.1h-2.505v-.535h5.711v.535h-2.488v.079c0,1.069,1.436,1.971,2.742,2.164l-.246.508a3.99,3.99,0,0,1-2.864-1.831,3.956,3.956,0,0,1-2.856,1.831Z" transform="translate(-188.985 -374.064)"/><path class="f" d="M230.278,377.484a3.382,3.382,0,0,1-1.98-1.927,3.436,3.436,0,0,1-1.989,2.067l-.333-.5a3.031,3.031,0,0,0,2-2.742v-.77h.63v.77a2.886,2.886,0,0,0,2,2.593Zm-3.188.885H232.3v2.715h-.64V378.9H227.09Zm5.212-5.124v4.721h-.64v-4.721Z" transform="translate(-211.979 -373.244)"/><path class="f" d="M265.527,378.955c.77-.035,1.542-.088,2.269-.184l.053.482a33.212,33.212,0,0,1-5.107.307l-.1-.543c.675,0,1.437-.009,2.243-.035V378.1c-.946-.1-1.559-.64-1.559-1.437,0-.867.753-1.446,1.875-1.446s1.866.578,1.866,1.446c0,.789-.6,1.332-1.542,1.437Zm2.059-4.2h-4.774v-.525h2.076v-.981h.64v.981h2.059Zm-2.383,2.856c.745,0,1.262-.377,1.262-.946s-.517-.937-1.262-.937-1.27.377-1.27.937S264.45,377.606,265.2,377.606Zm3.749-4.354v7.831h-.631v-7.831Z" transform="translate(-234.771 -373.244)"/><path class="f" d="M301.754,375.413a4,4,0,0,0,2.023,3.337l-.394.508a4.352,4.352,0,0,1-1.945-2.505,4.456,4.456,0,0,1-1.962,2.663l-.394-.517a4.2,4.2,0,0,0,2.041-3.486v-1.454h.631Zm4.73,1.594H305.17V381.1h-.639v-7.831h.639v3.2h1.314Z" transform="translate(-257.42 -373.258)"/><path class="f" d="M338.223,375.486a3.875,3.875,0,0,0,1.691,3.355l-.394.464a3.827,3.827,0,0,1-1.6-2.348,4.1,4.1,0,0,1-1.647,2.541l-.4-.473a4.156,4.156,0,0,0,1.734-3.539v-.771h-1.533v-.534h3.6v.534h-1.446Zm2.19-2.05h.6v7.236h-.6v-4.056h-1.349v-.534h1.349Zm2.172-.193v7.84h-.613v-7.84Z" transform="translate(-280.285 -373.244)"/><path class="f" d="M379.995,380.393v.534h-7.113v-.534Zm-.666-1.717a4.43,4.43,0,0,1-2.925-2.3,4.342,4.342,0,0,1-2.908,2.3l-.289-.534c1.288-.254,2.865-1.445,2.865-2.812v-.6h.675v.6c0,1.366,1.576,2.558,2.864,2.812Z" transform="translate(-303.293 -374.165)"/><path class="f" d="M414.028,377.384a12.7,12.7,0,0,1-2.891.219h-.5v-3.775H413.6v.526H411.26v1.06h2.032v.508H411.26v1.156a12.886,12.886,0,0,0,2.715-.21Zm-2.426,1.1h5.265v2.61h-.64v-2.085H411.6Zm3.145-2.619h-1.095v-.534h1.095v-1.9h.6v4.608h-.6Zm2.12-2.6V378.1h-.613v-4.835Z" transform="translate(-326.762 -373.258)"/></g></g></svg>