<svg xmlns="http://www.w3.org/2000/svg" width="242.714" height="75.317" viewBox="0 0 242.714 75.317"><defs><style>.a{fill:#fff;}</style></defs><g transform="translate(-67.431 -52.241)"><path class="a" d="M186.769,90.943q.325-.654,1.059-2.048c.493-.937,1.063-1.991,1.714-3.172q.9-1.87,2.04-3.918c.762-1.368,1.556-2.761,2.37-4.19s1.6-2.85,2.366-4.247,1.552-2.814,2.37-4.243c.753-1.368,1.381-2.521,1.873-3.449s.839-1.686,1.062-2.236a4.989,4.989,0,0,0,.774-2.378,1.223,1.223,0,0,0-1.018-1.169,12.022,12.022,0,0,0-2.37-.37c-.929-.061-1.983-.094-3.176-.094h-6.865V52.8h10.7c4.728,0,7.656,1.112,8.776,3.315s.639,5.546-1.429,10.026q-.739,1.674-2.619,5.311c-1.246,2.426-2.61,4.947-4.072,7.554-.769,1.3-1.5,2.61-2.211,3.918s-1.356,2.517-1.955,3.636c-.652,1.181-1.21,2.2-1.678,3.074s-.8,1.527-1.018,1.959q-1.717,3.077-1.181,5.13t3.059,2.056h13.719l6.2,7.452-20.491-.277a11.54,11.54,0,0,1-5.99-1.352,7.365,7.365,0,0,1-3.148-3.5,9.772,9.772,0,0,1-.574-4.895A15,15,0,0,1,186.769,90.943Z" transform="translate(-38.556 -0.184)"/><path class="a" d="M243.791,98.591l3.709,7.55H236.608a16.419,16.419,0,0,1-6.193-1.063c-1.6-.652-6.357-7-6.357-7-.684-1.637-.994-3.135-.994-6.577V67.821q0-8.02,3.262-11.516t10.12-3.5h6.771v7.461h-7.261a5.535,5.535,0,0,0-5.057,2.43,9.778,9.778,0,0,0-1.552,5.408V73.88h13.711v7.554H229.348v9.13q0,3.921,1.958,5.88a8.567,8.567,0,0,0,5.876,2.146Z" transform="translate(-51.053 -0.184)"/><path class="a" d="M269.453,53.157h6.536v6.992h-5.961q-3.666,0-5.3,1.963a6.756,6.756,0,0,0-1.637,4.475,5.693,5.693,0,0,0,.777,3.034,5.987,5.987,0,0,0,2.33,2.089c1.034.566,2.068,1.119,3.1,1.686s2.039,1.119,3.021,1.669a22.039,22.039,0,0,1,2.854,2.2,19.384,19.384,0,0,1,2.619,2.936,12.353,12.353,0,0,1,1.869,4.243,24.011,24.011,0,0,1,.66,5.921q0,7.091-4.044,11.377a13.66,13.66,0,0,1-10.408,4.284h-3.4L258.8,98.777l6.5-.021a9.792,9.792,0,0,0,3.3-.562,10.046,10.046,0,0,0,3.063-1.771,7.848,7.848,0,0,0,2.243-2.611,6.924,6.924,0,0,0,.778-3.266,12.213,12.213,0,0,0-.326-2.981,7.965,7.965,0,0,0-.9-2.235,11.287,11.287,0,0,0-3.669-3.356,30.26,30.26,0,0,0-4.577-2.333,18.956,18.956,0,0,1-2.977-1.584,11.594,11.594,0,0,1-2.574-2.333,11.227,11.227,0,0,1-1.787-3.632,18.4,18.4,0,0,1-.66-5.319q0-6.433,3.388-10.119A10.925,10.925,0,0,1,269.453,53.157Z" transform="translate(-62.255 -0.297)"/><path class="a" d="M304.679,59.62v46.613H298.4V59.62h-8.332V52.8H316.08l-5.118,6.817Z" transform="translate(-73.032 -0.184)"/><path class="a" d="M344.444,98.591l3.49,7.55H337.265q-6.86,0-10.205-3.918T323.709,91.5V67.821q0-8.02,3.266-11.516a11.608,11.608,0,0,1,7.363-3.339A22.687,22.687,0,0,1,337.1,52.8h10.832l-4.059,7.461h-7.265a5.539,5.539,0,0,0-5.057,2.43,9.785,9.785,0,0,0-1.56,5.408V73.88h13.719v7.554H329.993v9.13q0,3.921,1.963,5.88a8.6,8.6,0,0,0,5.876,2.146Z" transform="translate(-84.069 -0.184)"/><path class="a" d="M377.249,52.67V60.6h-.9a16.649,16.649,0,0,0-6.043.933,9.508,9.508,0,0,0-3.754,2.512,9.315,9.315,0,0,0-1.832,3.775,20.246,20.246,0,0,0-.534,4.8v13.43a23.846,23.846,0,0,0,.456,4.846,8,8,0,0,0,1.824,3.819,8.45,8.45,0,0,0,3.681,2.615,17.124,17.124,0,0,0,6.2.937l2.648.1,3.705,7.822h-7.089q-9.633,0-13.955-5.4t-4.325-13.8V71.879a26.039,26.039,0,0,1,1.022-7.412,16.249,16.249,0,0,1,3.225-6.1,15.409,15.409,0,0,1,5.668-4.153,20.473,20.473,0,0,1,8.365-1.539Z" transform="translate(-95.1 -0.141)"/><path class="a" d="M417.355,53.088v53.146h-6.2V81.8H400.537v24.429h-2.545l-3.738-8.168V53.088h6.283v20.98h10.616V53.088Z" transform="translate(-107.21 -0.278)"/><path class="a" d="M136.779,75.916c-1.755-4.252-6.931-16.83-8.514-20.617s-4.557-2.985-4.557-2.985l-52.388,6.7s-4.882,1.478-3.706,5.8c.505,1.863,3.35,12.315,6.424,23.611a250.061,250.061,0,0,1,25.3-19.983,97.183,97.183,0,0,1,14.244-8.128c1.246-.566,2.517-1.066,3.8-1.523.643-.228,1.3-.44,1.955-.632a6.289,6.289,0,0,1,2.422-.394,2.627,2.627,0,0,1,1.792.912,3.427,3.427,0,0,1,.724,1.967,8.348,8.348,0,0,1-.362,2.769,30.058,30.058,0,0,1-1.661,4.316,139.7,139.7,0,0,1-8.641,15.063q-4.636,7.22-9.573,14.146,4.471-7.336,8.621-14.883a141.831,141.831,0,0,0,7.517-15.474,27.891,27.891,0,0,0,1.242-3.963,5.671,5.671,0,0,0,.142-1.571,5.139,5.139,0,0,0-1.384.427c-.594.224-1.189.456-1.779.712-1.173.517-2.341,1.072-3.486,1.686a95.858,95.858,0,0,0-13.242,8.792,255.137,255.137,0,0,0-24.258,21.9c-.445.45-.886.906-1.33,1.359,3.386,12.441,6.489,23.839,6.489,23.839s4.3,13.414,13.349,3.677c2.8-3.016,7.646-7.881,13-13.159.284-.544.575-1.083.854-1.631a198.815,198.815,0,0,0,14-35.708,206.655,206.655,0,0,1-8.4,31c10.11-9.873,19.9-19.239,19.9-19.239S138.53,80.17,136.779,75.916Z" transform="translate(0 0)"/><g transform="translate(149.111 113.636)"><path class="a" d="M201.553,152.954h-5.74v4.993h-1.136v-4.993h-5.693V152h12.568Zm-11.806-3.1c2.333-.342,4.885-1.944,4.885-3.842v-.14h-4.449v-.949h10.142v.949h-4.418v.14c0,1.9,2.551,3.5,4.869,3.842l-.436.9c-2.084-.373-4.246-1.54-5.086-3.251-.824,1.711-2.987,2.878-5.071,3.251Z" transform="translate(-188.985 -144.041)"/><path class="a" d="M233.615,151.137a6.008,6.008,0,0,1-3.516-3.422,6.1,6.1,0,0,1-3.531,3.671l-.591-.886a5.383,5.383,0,0,0,3.547-4.869v-1.369h1.119v1.369a5.124,5.124,0,0,0,3.547,4.6Zm-5.662,1.571h9.256v4.822h-1.136v-3.873h-8.119Zm9.256-9.1v8.384h-1.136v-8.384Z" transform="translate(-201.12 -143.608)"/><path class="a" d="M267.763,153.75c1.368-.062,2.738-.156,4.028-.327l.093.856a58.978,58.978,0,0,1-9.069.544l-.171-.964c1.2,0,2.551-.016,3.983-.062v-1.571c-1.68-.171-2.769-1.136-2.769-2.551,0-1.54,1.338-2.567,3.329-2.567s3.313,1.027,3.313,2.567c0,1.4-1.073,2.364-2.738,2.551Zm3.655-7.467h-8.478v-.933h3.687v-1.742h1.136v1.742h3.655Zm-4.231,5.071c1.322,0,2.24-.669,2.24-1.68s-.918-1.664-2.24-1.664c-1.338,0-2.256.669-2.256,1.664S265.85,151.354,267.188,151.354Zm6.658-7.731V157.53h-1.12V143.623Z" transform="translate(-213.148 -143.608)"/><path class="a" d="M303.827,147.442a7.1,7.1,0,0,0,3.593,5.927l-.7.9a7.729,7.729,0,0,1-3.453-4.449,7.914,7.914,0,0,1-3.485,4.729l-.7-.918a7.458,7.458,0,0,0,3.625-6.191V144.86h1.12Zm8.4,2.831h-2.334v7.265h-1.135V143.631h1.135v5.677h2.334Z" transform="translate(-225.101 -143.616)"/><path class="a" d="M340.051,147.59a6.883,6.883,0,0,0,3,5.958l-.7.825a6.8,6.8,0,0,1-2.847-4.169,7.281,7.281,0,0,1-2.924,4.511l-.715-.84a7.38,7.38,0,0,0,3.08-6.284v-1.369h-2.722v-.949h6.393v.949h-2.567Zm3.889-3.64h1.073V156.8H343.94v-7.2h-2.4v-.949h2.4Zm3.858-.342V157.53h-1.089V143.608Z" transform="translate(-237.168 -143.608)"/><path class="a" d="M385.513,155.153v.95H372.882v-.95ZM384.33,152.1a7.864,7.864,0,0,1-5.195-4.075,7.708,7.708,0,0,1-5.165,4.075l-.513-.949c2.287-.451,5.087-2.566,5.087-4.993v-1.074h1.2v1.074c0,2.426,2.8,4.542,5.086,4.993Z" transform="translate(-249.31 -144.094)"/><path class="a" d="M416.658,150.942a22.591,22.591,0,0,1-5.133.389h-.887v-6.7H415.9v.934h-4.153v1.881h3.609v.9h-3.609V150.4a22.887,22.887,0,0,0,4.822-.373Zm-4.309,1.96H421.7v4.635h-1.136v-3.7H412.35Zm5.584-4.651H415.99V147.3h1.944v-3.376h1.074v8.182h-1.074Zm3.765-4.62v8.586h-1.089v-8.586Z" transform="translate(-261.695 -143.616)"/></g></g></svg>